<?xml version="1.0" standalone="no"?>
<!DOCTYPE svg PUBLIC "-//W3C//DTD SVG 20010904//EN"
 "http://www.w3.org/TR/2001/REC-SVG-20010904/DTD/svg10.dtd">
<svg version="1.0" xmlns="http://www.w3.org/2000/svg"
 width="883.000000pt" height="1280.000000pt" viewBox="0 0 883.000000 1280.000000"
 preserveAspectRatio="xMidYMid meet">
<g transform="translate(0.000000,1280.000000) scale(0.100000,-0.100000)"
fill="#000000" stroke="none">
<path d="M5475 12776 c-88 -32 -121 -52 -167 -99 -140 -143 -139 -376 1 -525
45 -48 46 -51 29 -74 -74 -96 -4012 -1454 -5023 -1733 -93 -25 -177 -49 -185
-52 -8 -3 73 -27 180 -54 717 -182 2722 -796 4125 -1263 626 -209 884 -302
903 -324 19 -24 18 -4205 -2 -4221 -10 -8 -46 -8 -142 1 -84 8 -300 13 -614
13 -519 -1 -651 -8 -1040 -61 -1166 -157 -2135 -559 -2696 -1119 -171 -170
-283 -323 -363 -496 -88 -190 -121 -337 -121 -539 0 -206 40 -370 136 -565
177 -357 516 -676 1018 -960 645 -364 1590 -617 2521 -675 94 -6 220 -15 281
-20 141 -13 407 -13 548 0 61 5 188 14 281 20 442 29 929 107 1345 216 171 45
540 167 690 229 683 280 1189 663 1448 1095 101 170 152 317 187 543 19 116
19 118 -3 258 -69 444 -310 800 -780 1151 -505 378 -1303 685 -2132 823 -52 8
-105 18 -117 20 l-23 5 0 3854 0 3854 68 68 c88 88 115 152 115 269 0 105 -27
176 -95 251 -54 58 -96 84 -187 115 -71 24 -111 23 -186 -5z"/>
</g>
</svg>
